<svg width="150" height="31" viewBox="0 0 150 31" fill="none" xmlns="http://www.w3.org/2000/svg">
<path d="M0 10.0001C0 4.47729 4.47715 0.000136942 10 0.000136942H37C34.3918 0.138654 31.3851 1.55674 29.7 4.0001C27.8667 6.37741 27.7179 8.30813 27.7003 11.9195V14.4829V17.2415C27.613 22.376 28.2104 24.5392 30.5 27.0001C34.1144 30.2939 36.6683 29.86 38 30.0001C38.8928 30.0941 21.5107 30.0621 9.95491 30.0308C4.446 30.0158 0 25.5447 0 20.0357V10.0001Z" fill="#D9D9D9" fill-opacity="0.38"/>
<g filter="url(#filter0_i_103_2)">
<rect width="122.3" height="30" rx="10" transform="matrix(-1 0 0 1 150 9.15527e-05)" fill="#D9D9D9" fill-opacity="0.2"/>
</g>
<defs>
<filter id="filter0_i_103_2" x="27.7004" y="9.15527e-05" width="122.3" height="34" filterUnits="userSpaceOnUse" color-interpolation-filters="sRGB">
<feFlood flood-opacity="0" result="BackgroundImageFix"/>
<feBlend mode="normal" in="SourceGraphic" in2="BackgroundImageFix" result="shape"/>
<feColorMatrix in="SourceAlpha" type="matrix" values="0 0 0 0 0 0 0 0 0 0 0 0 0 0 0 0 0 0 127 0" result="hardAlpha"/>
<feOffset dy="4"/>
<feGaussianBlur stdDeviation="13.55"/>
<feComposite in2="hardAlpha" operator="arithmetic" k2="-1" k3="1"/>
<feColorMatrix type="matrix" values="0 0 0 0 0 0 0 0 0 0 0 0 0 0 0 0 0 0 0.25 0"/>
<feBlend mode="normal" in2="shape" result="effect1_innerShadow_103_2"/>
</filter>
</defs>
</svg>
