<svg width="15" height="18" viewBox="0 0 15 18" fill="none" xmlns="http://www.w3.org/2000/svg">
<path d="M10.6399 4.22546C10.6399 5.01689 10.2957 5.7759 9.68305 6.33553C9.07037 6.89515 8.2394 7.20954 7.37294 7.20954C6.50649 7.20954 5.67552 6.89515 5.06284 6.33553C4.45016 5.7759 4.10596 5.01689 4.10596 4.22546C4.10596 3.43403 4.45016 2.67502 5.06284 2.1154C5.67552 1.55577 6.50649 1.24138 7.37294 1.24138C8.2394 1.24138 9.07037 1.55577 9.68305 2.1154C10.2957 2.67502 10.6399 3.43403 10.6399 4.22546ZM0.839844 15.4599C0.867839 13.8942 1.56846 12.4012 2.79061 11.3029C4.01275 10.2047 5.65851 9.58923 7.37294 9.58923C9.08738 9.58923 10.7331 10.2047 11.9553 11.3029C13.1774 12.4012 13.878 13.8942 13.906 15.4599C11.8565 16.3184 9.62773 16.7614 7.37294 16.7586C5.04162 16.7586 2.82878 16.2939 0.839844 15.4599Z" stroke="black" stroke-width="1.5" stroke-linecap="round" stroke-linejoin="round"/>
</svg>
